<svg xmlns="http://www.w3.org/2000/svg" style="display: none;">
<!-- <defs> -->
<symbole id="icon-left-arrow" viewBox="0 0 24 24">
  <path fill-rule="evenodd" clip-rule="evenodd" d="M11.7071 4.29289C12.0976 4.68342 12.0976 5.31658 11.7071 5.70711L6.41421 11H20C20.5523 11 21 11.4477 21 12C21 12.5523 20.5523 13 20 13H6.41421L11.7071 18.2929C12.0976 18.6834 12.0976 19.3166 11.7071 19.7071C11.3166 20.0976 10.6834 20.0976 10.2929 19.7071L3.29289 12.7071C3.10536 12.5196 3 12.2652 3 12C3 11.7348 3.10536 11.4804 3.29289 11.2929L10.2929 4.29289C10.6834 3.90237 11.3166 3.90237 11.7071 4.29289Z" />
</symbole>

<symbol id= "icon-right-arrow" viewBox="0 0 24 24">
  <path fill-rule="evenodd" clip-rule="evenodd" d="M12.2929 4.29289C12.6834 3.90237 13.3166 3.90237 13.7071 4.29289L20.7071 11.2929C21.0976 11.6834 21.0976 12.3166 20.7071 12.7071L13.7071 19.7071C13.3166 20.0976 12.6834 20.0976 12.2929 19.7071C11.9024 19.3166 11.9024 18.6834 12.2929 18.2929L17.5858 13H4C3.44772 13 3 12.5523 3 12C3 11.4477 3.44772 11 4 11H17.5858L12.2929 5.70711C11.9024 5.31658 11.9024 4.68342 12.2929 4.29289Z" />
</symbol>

<symbol id= "icon-radio-checked" viewBox="0 0 24 24">
    <path fill="none" d="M0 0h24v24H0z"/> <path d="M12 22C6.477 22 2 17.523 2 12S6.477 2 12 2s10 4.477 10 10-4.477 10-10 10zm0-2a8 8 0 1 0 0-16 8 8 0 0 0 0 16zm0-3a5 5 0 1 1 0-10 5 5 0 0 1 0 10z"/>
</symbol>

<symbol id= "icon-radio-unchecked" viewBox="0 0 24 24">
 <path  id="Vector" d="M12 4C7.58172 4 4 7.58172 4 12C4 16.4183 7.58172 20 12 20C16.4183 20 20 16.4183 20 12C20 7.58172 16.4183 4 12 4Z"  />
</symbol>

<symbol id= "icon-warninng" viewBox="0 0 478.125 478.125">
<circle cx="239.904" cy="314.721" r="35.878"/>
 <path d="M256.657,127.525h-31.9c-10.557,0-19.125,8.645-19.125,19.125v101.975c0,10.48,8.645,19.125,19.125,19.125h31.9
				c10.48,0,19.125-8.645,19.125-19.125V146.65C275.782,136.17,267.138,127.525,256.657,127.525z"/>
			<path d="M239.062,0C106.947,0,0,106.947,0,239.062s106.947,239.062,239.062,239.062c132.115,0,239.062-106.947,239.062-239.062
				S371.178,0,239.062,0z M239.292,409.734c-94.171,0-170.595-76.348-170.595-170.596c0-94.248,76.347-170.595,170.595-170.595
				s170.595,76.347,170.595,170.595C409.887,333.387,333.464,409.734,239.292,409.734z"/>
</symbol>


<!-- </defs> -->
</svg>