<!DOCTYPE svg PUBLIC "-//W3C//DTD SVG 1.1//EN" "http://www.w3.org/Graphics/SVG/1.1/DTD/svg11.dtd">

<!-- Uploaded to: SVG Repo, www.svgrepo.com, Transformed by: SVG Repo Mixer Tools -->
<svg width="800px" height="800px" viewBox="0 0 16 16" xmlns="http://www.w3.org/2000/svg" fill="#00000" stroke="#00000" stroke-width="0.00016">

<g id="SVGRepo_bgCarrier" stroke-width="0"/>

<g id="SVGRepo_tracerCarrier" stroke-linecap="round" stroke-linejoin="round"/>

<g id="SVGRepo_iconCarrier"> <path d="m 8 0 c -4.40625 0 -8 3.59375 -8 8 s 3.59375 8 8 8 s 8 -3.59375 8 -8 s -3.59375 -8 -8 -8 z m 0 2 c 3.320312 0 6 2.679688 6 6 s -2.679688 6 -6 6 s -6 -2.679688 -6 -6 s 2.679688 -6 6 -6 z m -0.007812 3 c -1.652344 0 -3 1.34375 -3 3 s 1.347656 3 3 3 c 1.65625 0 3 -1.34375 3 -3 s -1.34375 -3 -3 -3 z m 0 0" /> </g>

</svg>